<svg width="177" height="24" viewBox="0 0 177 24" fill="none" xmlns="http://www.w3.org/2000/svg">
<g clip-path="url(#clip0_1528_250)">
<path d="M10.3 18L7.105 7.545H9.565L11.575 14.37L13.3 8.175H15.61L17.335 14.37L19.345 7.545H21.805L18.61 18H16.345L14.26 10.98H14.65L12.565 18H10.3ZM25.0921 18V9.645H22.0321V7.545H30.5221V9.645H27.4771V18H25.0921ZM33.8226 18V9.645H30.7626V7.545H39.2526V9.645H36.2076V18H33.8226ZM40.258 18V7.545H43.933C45.143 7.545 46.048 7.8 46.648 8.31C47.258 8.81 47.563 9.58 47.563 10.62C47.563 11.66 47.253 12.45 46.633 12.99C46.023 13.53 45.123 13.8 43.933 13.8H42.598V18H40.258ZM42.598 11.7H43.693C44.173 11.7 44.543 11.63 44.803 11.49C45.073 11.35 45.208 11.07 45.208 10.65C45.208 10.25 45.083 9.985 44.833 9.855C44.593 9.715 44.213 9.645 43.693 9.645H42.598V11.7ZM52.6653 18V7.545H55.8153C57.5653 7.545 58.9203 8.005 59.8803 8.925C60.8403 9.845 61.3203 11.155 61.3203 12.855C61.3203 14.515 60.8453 15.79 59.8953 16.68C58.9553 17.56 57.5903 18 55.8003 18H52.6653ZM55.0203 15.84H55.5603C56.2703 15.84 56.8753 15.76 57.3753 15.6C57.8853 15.44 58.2753 15.14 58.5453 14.7C58.8153 14.25 58.9503 13.605 58.9503 12.765C58.9503 11.955 58.8203 11.33 58.5603 10.89C58.3103 10.44 57.9453 10.13 57.4653 9.96C56.9953 9.79 56.4303 9.705 55.7703 9.705H55.0203V15.84ZM67.3948 18.27C66.3848 18.27 65.4948 18.04 64.7248 17.58C63.9548 17.12 63.3548 16.48 62.9248 15.66C62.4948 14.83 62.2798 13.87 62.2798 12.78C62.2798 11.68 62.4948 10.72 62.9248 9.9C63.3548 9.07 63.9548 8.425 64.7248 7.965C65.4948 7.505 66.3848 7.275 67.3948 7.275C68.4148 7.275 69.3098 7.505 70.0798 7.965C70.8498 8.415 71.4498 9.055 71.8798 9.885C72.3098 10.705 72.5248 11.67 72.5248 12.78C72.5248 13.88 72.3048 14.845 71.8648 15.675C71.4348 16.495 70.8348 17.135 70.0648 17.595C69.2948 18.045 68.4048 18.27 67.3948 18.27ZM67.3948 16.02C67.9648 16.02 68.4548 15.89 68.8648 15.63C69.2748 15.36 69.5898 14.985 69.8098 14.505C70.0398 14.015 70.1548 13.44 70.1548 12.78C70.1548 12.11 70.0398 11.535 69.8098 11.055C69.5898 10.565 69.2748 10.19 68.8648 9.93C68.4548 9.66 67.9648 9.525 67.3948 9.525C66.8348 9.525 66.3448 9.655 65.9248 9.915C65.5148 10.175 65.1948 10.55 64.9648 11.04C64.7448 11.52 64.6348 12.1 64.6348 12.78C64.6348 13.45 64.7448 14.03 64.9648 14.52C65.1948 15 65.5148 15.37 65.9248 15.63C66.3448 15.89 66.8348 16.02 67.3948 16.02ZM78.6009 18.27C77.5909 18.27 76.7009 18.04 75.9309 17.58C75.1609 17.12 74.5609 16.48 74.1309 15.66C73.7009 14.83 73.4859 13.865 73.4859 12.765C73.4859 11.665 73.7009 10.705 74.1309 9.885C74.5609 9.065 75.1609 8.425 75.9309 7.965C76.7009 7.505 77.5909 7.275 78.6009 7.275C79.7509 7.275 80.7409 7.565 81.5709 8.145C82.4009 8.715 82.9959 9.505 83.3559 10.515L81.1359 11.31C80.9359 10.75 80.6159 10.315 80.1759 10.005C79.7459 9.685 79.2209 9.525 78.6009 9.525C78.0409 9.525 77.5509 9.655 77.1309 9.915C76.7209 10.175 76.4009 10.545 76.1709 11.025C75.9509 11.505 75.8409 12.085 75.8409 12.765C75.8409 13.445 75.9509 14.03 76.1709 14.52C76.4009 15 76.7209 15.37 77.1309 15.63C77.5509 15.89 78.0409 16.02 78.6009 16.02C79.2209 16.02 79.7459 15.865 80.1759 15.555C80.6159 15.235 80.9359 14.795 81.1359 14.235L83.3559 15.03C82.9959 16.03 82.4009 16.82 81.5709 17.4C80.7409 17.98 79.7509 18.27 78.6009 18.27ZM88.2142 18.225C87.0542 18.225 86.1042 17.925 85.3642 17.325C84.6242 16.725 84.1742 15.925 84.0142 14.925L86.3092 14.355C86.4192 14.955 86.6442 15.405 86.9842 15.705C87.3342 15.995 87.7692 16.14 88.2892 16.14C88.5492 16.14 88.7792 16.1 88.9792 16.02C89.1892 15.94 89.3542 15.82 89.4742 15.66C89.5942 15.5 89.6542 15.31 89.6542 15.09C89.6542 14.89 89.5942 14.715 89.4742 14.565C89.3542 14.405 89.1592 14.255 88.8892 14.115C88.6192 13.965 88.2592 13.805 87.8092 13.635C87.0992 13.355 86.5192 13.06 86.0692 12.75C85.6192 12.43 85.2892 12.065 85.0792 11.655C84.8692 11.245 84.7642 10.775 84.7642 10.245C84.7642 9.665 84.9042 9.155 85.1842 8.715C85.4742 8.265 85.8742 7.915 86.3842 7.665C86.9042 7.405 87.5042 7.275 88.1842 7.275C88.9142 7.275 89.5592 7.445 90.1192 7.785C90.6892 8.115 91.1442 8.62 91.4842 9.3L89.6092 10.44C89.4192 10.09 89.1942 9.825 88.9342 9.645C88.6842 9.455 88.4092 9.36 88.1092 9.36C87.9292 9.36 87.7642 9.395 87.6142 9.465C87.4642 9.535 87.3442 9.635 87.2542 9.765C87.1642 9.885 87.1192 10.03 87.1192 10.2C87.1192 10.37 87.1692 10.53 87.2692 10.68C87.3792 10.83 87.5742 10.985 87.8542 11.145C88.1342 11.295 88.5242 11.465 89.0242 11.655C89.6942 11.905 90.2442 12.18 90.6742 12.48C91.1142 12.78 91.4442 13.13 91.6642 13.53C91.8842 13.92 91.9942 14.39 91.9942 14.94C91.9942 15.58 91.8342 16.15 91.5142 16.65C91.2042 17.14 90.7642 17.525 90.1942 17.805C89.6342 18.085 88.9742 18.225 88.2142 18.225Z" fill="black"/>
</g>
<defs>
<clipPath id="clip0_1528_250">
<rect width="177" height="24" fill="white"/>
</clipPath>
</defs>
</svg>
