<svg width="177" height="24" viewBox="0 0 177 24" fill="none" xmlns="http://www.w3.org/2000/svg">
<g clip-path="url(#clip0_1528_250)">
<path d="M4.4 19L0.14 5.06H3.42L6.1 14.16L8.4 5.9H11.48L13.78 14.16L16.46 5.06H19.74L15.48 19H12.46L9.68 9.64H10.2L7.42 19H4.4ZM24.1228 19V7.86H20.0428V5.06H31.3628V7.86H27.3028V19H24.1228ZM35.7634 19V7.86H31.6834V5.06H43.0034V7.86H38.9434V19H35.7634ZM44.3441 19V5.06H49.2441C50.8574 5.06 52.0641 5.4 52.8641 6.08C53.6774 6.74667 54.0841 7.77333 54.0841 9.16C54.0841 10.5467 53.6707 11.6 52.8441 12.32C52.0307 13.04 50.8307 13.4 49.2441 13.4H47.4641V19H44.3441ZM47.4641 10.6H48.9241C49.5641 10.6 50.0574 10.5067 50.4041 10.32C50.7641 10.1333 50.9441 9.76 50.9441 9.2C50.9441 8.66667 50.7774 8.31333 50.4441 8.14C50.1241 7.95333 49.6174 7.86 48.9241 7.86H47.4641V10.6ZM60.887 19V5.06H65.087C67.4204 5.06 69.227 5.67333 70.507 6.9C71.787 8.12667 72.427 9.87333 72.427 12.14C72.427 14.3533 71.7937 16.0533 70.527 17.24C69.2737 18.4133 67.4537 19 65.067 19H60.887ZM64.027 16.12H64.747C65.6937 16.12 66.5004 16.0133 67.167 15.8C67.847 15.5867 68.367 15.1867 68.727 14.6C69.087 14 69.267 13.14 69.267 12.02C69.267 10.94 69.0937 10.1067 68.747 9.52C68.4137 8.92 67.927 8.50667 67.287 8.28C66.6604 8.05333 65.907 7.94 65.027 7.94H64.027V16.12ZM80.5264 19.36C79.1797 19.36 77.9931 19.0533 76.9664 18.44C75.9397 17.8267 75.1397 16.9733 74.5664 15.88C73.9931 14.7733 73.7064 13.4933 73.7064 12.04C73.7064 10.5733 73.9931 9.29333 74.5664 8.2C75.1397 7.09333 75.9397 6.23333 76.9664 5.62C77.9931 5.00667 79.1797 4.7 80.5264 4.7C81.8864 4.7 83.0797 5.00667 84.1064 5.62C85.1331 6.22 85.9331 7.07333 86.5064 8.18C87.0797 9.27333 87.3664 10.56 87.3664 12.04C87.3664 13.5067 87.0731 14.7933 86.4864 15.9C85.9131 16.9933 85.1131 17.8467 84.0864 18.46C83.0597 19.06 81.8731 19.36 80.5264 19.36ZM80.5264 16.36C81.2864 16.36 81.9397 16.1867 82.4864 15.84C83.0331 15.48 83.4531 14.98 83.7464 14.34C84.0531 13.6867 84.2064 12.92 84.2064 12.04C84.2064 11.1467 84.0531 10.38 83.7464 9.74C83.4531 9.08667 83.0331 8.58667 82.4864 8.24C81.9397 7.88 81.2864 7.7 80.5264 7.7C79.7797 7.7 79.1264 7.87333 78.5664 8.22C78.0197 8.56667 77.5931 9.06667 77.2864 9.72C76.9931 10.36 76.8464 11.1333 76.8464 12.04C76.8464 12.9333 76.9931 13.7067 77.2864 14.36C77.5931 15 78.0197 15.4933 78.5664 15.84C79.1264 16.1867 79.7797 16.36 80.5264 16.36ZM95.4678 19.36C94.1211 19.36 92.9345 19.0533 91.9078 18.44C90.8811 17.8267 90.0811 16.9733 89.5078 15.88C88.9345 14.7733 88.6478 13.4867 88.6478 12.02C88.6478 10.5533 88.9345 9.27333 89.5078 8.18C90.0811 7.08667 90.8811 6.23333 91.9078 5.62C92.9345 5.00667 94.1211 4.7 95.4678 4.7C97.0011 4.7 98.3211 5.08667 99.4278 5.86C100.534 6.62 101.328 7.67333 101.808 9.02L98.8478 10.08C98.5811 9.33333 98.1545 8.75333 97.5678 8.34C96.9945 7.91333 96.2945 7.7 95.4678 7.7C94.7211 7.7 94.0678 7.87333 93.5078 8.22C92.9611 8.56667 92.5345 9.06 92.2278 9.7C91.9345 10.34 91.7878 11.1133 91.7878 12.02C91.7878 12.9267 91.9345 13.7067 92.2278 14.36C92.5345 15 92.9611 15.4933 93.5078 15.84C94.0678 16.1867 94.7211 16.36 95.4678 16.36C96.2945 16.36 96.9945 16.1533 97.5678 15.74C98.1545 15.3133 98.5811 14.7267 98.8478 13.98L101.808 15.04C101.328 16.3733 100.534 17.4267 99.4278 18.2C98.3211 18.9733 97.0011 19.36 95.4678 19.36ZM108.286 19.3C106.739 19.3 105.472 18.9 104.486 18.1C103.499 17.3 102.899 16.2333 102.686 14.9L105.746 14.14C105.892 14.94 106.192 15.54 106.646 15.94C107.112 16.3267 107.692 16.52 108.386 16.52C108.732 16.52 109.039 16.4667 109.306 16.36C109.586 16.2533 109.806 16.0933 109.966 15.88C110.126 15.6667 110.206 15.4133 110.206 15.12C110.206 14.8533 110.126 14.62 109.966 14.42C109.806 14.2067 109.546 14.0067 109.186 13.82C108.826 13.62 108.346 13.4067 107.746 13.18C106.799 12.8067 106.026 12.4133 105.426 12C104.826 11.5733 104.386 11.0867 104.106 10.54C103.826 9.99333 103.686 9.36667 103.686 8.66C103.686 7.88667 103.872 7.20667 104.246 6.62C104.632 6.02 105.166 5.55333 105.846 5.22C106.539 4.87333 107.339 4.7 108.246 4.7C109.219 4.7 110.079 4.92667 110.826 5.38C111.586 5.82 112.192 6.49333 112.646 7.4L110.146 8.92C109.892 8.45333 109.592 8.1 109.246 7.86C108.912 7.60667 108.546 7.48 108.146 7.48C107.906 7.48 107.686 7.52667 107.486 7.62C107.286 7.71333 107.126 7.84667 107.006 8.02C106.886 8.18 106.826 8.37333 106.826 8.6C106.826 8.82667 106.892 9.04 107.026 9.24C107.172 9.44 107.432 9.64667 107.806 9.86C108.179 10.06 108.699 10.2867 109.366 10.54C110.259 10.8733 110.992 11.24 111.566 11.64C112.152 12.04 112.592 12.5067 112.886 13.04C113.179 13.56 113.326 14.1867 113.326 14.92C113.326 15.7733 113.112 16.5333 112.686 17.2C112.272 17.8533 111.686 18.3667 110.926 18.74C110.179 19.1133 109.299 19.3 108.286 19.3Z" fill="#1D1D1D"/>
</g>
<defs>
<clipPath id="clip0_1528_250">
<rect width="177" height="24" fill="white"/>
</clipPath>
</defs>
</svg>
